<svg id="Layer_1" data-name="Layer 1" xmlns="http://www.w3.org/2000/svg" viewBox="0 0 500 495"><defs><style>.cls-1{fill:#f5f6f7;}.cls-2,.cls-4,.cls-6{fill:#f47a45;}.cls-2{opacity:0.2;}.cls-3{fill:#8fbcde;opacity:0.5;}.cls-4,.cls-5{fill-rule:evenodd;}.cls-5,.cls-7{fill:#2399cd;}.cls-8{fill:#fabeb7;}.cls-9{fill:#24223a;}.cls-10{fill:#1c1d1d;}.cls-11{fill:#f8f7f8;}.cls-12{fill:#f2675e;}</style></defs><title>blue ver</title><rect class="cls-1" x="-10.81" y="-21.15" width="521.97" height="525.45" rx="12" ry="12"/><circle class="cls-2" cx="310.74" cy="359.69" r="168.49"/><circle class="cls-3" cx="405.29" cy="246.27" r="154.24"/><path class="cls-4" d="M197.66,258.23c1.45.65,7.65,19.13,9.6,19.07.94,0,6.84-4.82,6.84-4.82-.62-1.25-2.71-3.88-1.87-4.22,3.19-1.27,10.31-.61,11.4,0,1.93,1.16-1,10-3.11,11.42-.58.38-1.37-1-1.94-1.84,0,0-12.12,9.38-14,8.87s-2.79-4.94-4.07-5.51-11.41,5.51-11.41,5.51c.24,2.56,2.1,4.53,1.14,5.31-2.63,2.13-12.26-2.21-13-3.27s4.8-10.29,6.13-11.11,2,1.83,3,3.59c0,0,10.75-5,10.77-7.11s-6.39-11-6.49-11.75C190.43,260.63,196.2,257.59,197.66,258.23Z"/><path class="cls-5" d="M153.93,334.59c0-14.24,15-25.71,27.49-24.6,12.79,1.14,22.33,13.6,20.15,29.68-.51,3.76-4,15.51-7.12,7.29-2.48-6.43-5.72-12.86-11.89-16.2C169.33,323.59,153.92,337.43,153.93,334.59Z"/><path class="cls-4" d="M167.23,335c2.21,1.72,5,4.19,7.63,5.23,1.28.51,4.79-2.89,6.17-3.37,6.69-2.31.66,7.17.69,9.83,0,2.39,7.54,5.11,7.4,9-.07,2.09-11.74,0-13.13,1.76-.44.56-4.2,11.46-7.05,11.41s-1-11.93-3.86-12.71c-2.44-.67-7.31.57-8.54-2.19-1.07-2.41,9.77-5.86,9.27-9.73-.19-1.39-2.36-10.81,1.42-9.22C167.33,335,166,334.43,167.23,335Z"/><path class="cls-5" d="M204.27,303.76c-6-6.63-14.23-10.67-16-2.68-1.54,7,15.7,18.74,24.79,22C221.65,299.12,204,284.49,204.27,303.76Z"/><path class="cls-5" d="M236.33,486.77c.37-.08-7.75-1.24-5,1.26,1,.87.21,1.64-.85,1.65-2.85,0-5.62-4.39-6.71-6.56-1.31-2.6-1.1-5.87-2.91-8.14-6.3-7.92-16.24-34.88-17.67-36.94-1.84-2.66-24.93-25.59-26.54-32.5-2.1-9-.63-26.41,2.28-38.07,1.73-6.92,30.05,17.58,31.23,22.37s-3.75,41.49-4.91,46.74c-1,4.54,13.84,35,18.28,39,1.44,1.31,4.31,2.24,6,3.64a33.7,33.7,0,0,1,6.73,7.52C235.78,486.88,235.65,485.76,236.33,486.77Z"/><path class="cls-5" d="M175.79,376.87c0,2-3.54,14.92-2,25.61,1.88,12.76,18.67,26.58,19.52,27.31.46.39-5.74,4.1-7.11,3.25-2.91-1.83-16-12.74-20.9-29.24-2.5-8.46,1.91-24.59,2.67-26.39A33.57,33.57,0,0,1,175.79,376.87Z"/><path class="cls-4" d="M304.44,530.78c-.1-.42-2-.92-2.55-1C293,528.64,281,519,280,522.87c-.13.45.1,1.06-.69,1.32-2.16-1.86-5.12-6.44-9-9-5.53-3.73-9.52-2.84-8.75-.51,4.28,13.07-.56,9.73-3.35.51-5.71-18.89-12.44-17.32-15.2-9.73-2.6,1.46-3.63-7.55-4.21-8.51a2.1,2.1,0,0,0-3.58,0,15.25,15.25,0,0,1-2,2c-3.54-.22-5.73-4.15-8-7.35-1.56-2.17-3.79-5.84-3.73-3.16.08,3.65,8.07,11.34,10.89,13.83a2.11,2.11,0,0,0,3.26-.42,3.3,3.3,0,0,1,.51-.55c.26,1,.43,2.06.69,3.06a7.86,7.86,0,0,0,3.34,4.7,2.88,2.88,0,0,0,4.36-1.95c.38-1.92.38-3.31,8.49,11,2.56,4.52,7.81,11.74,14.3,11.47,4.53-.19-.35-9.06.08-9.68.73.09,1,.73,1.41,1.21a64.79,64.79,0,0,0,10.62,10.25,3.9,3.9,0,0,0,4.58.63c1.46-.85.48-3.07,1.91-4.45s5.56,1.8,7.52,2.48C300.42,532.43,304.53,531.15,304.44,530.78Z"/><path class="cls-5" d="M203.42,370c-2.59-1.25-5.24-2.24-7.72-3.59-1.57-.86-1.9-1.52-1.52-3.25a5.15,5.15,0,0,0,.11-1.17,28,28,0,0,1,1.07-7.5A1.85,1.85,0,0,1,197,353c.78,0,1.31.45,1.64,1.42.7,2.1.3,4.25.21,6.37-.06,1.53-.26,1.34,1.24,1.88.73.25,1.56.93,2.21.63s.28-1.43.39-2.18c.19-1.34,1-2.79,1.56-2.49a2.7,2.7,0,0,1,1.11,2.48,7.54,7.54,0,0,1-.07,2c-.26,1,.09,1.51,1.06,1.84,1.33.47,2.6,1.09,3.91,1.6.94.37,1.21.25,1.46-.72a9.07,9.07,0,0,0,.44-2.32,7.51,7.51,0,0,1,.13-1.34c.27-1.44,1-2.28,1.75-2.12,1.84.36,3,1.65,2.54,3.15a68.44,68.44,0,0,1-2.16,7.11,2.9,2.9,0,0,1-2.16,1.85,6.1,6.1,0,0,1-4.56-.41C206.3,371.12,204.82,370.56,203.42,370Z"/><path class="cls-5" d="M213.69,338.79a2.34,2.34,0,0,1,1.27-.93c1.11-.22,1.11-.81.83-1.7a4.9,4.9,0,0,1-.15-2.35,2.8,2.8,0,0,1,3.4-2.48,9.25,9.25,0,0,1,3.42,1.37c1.15.66,2.14,1.64,3.61,1.64.51,0,.74.47.8,1a1.48,1.48,0,0,1-.61,1.63,2.17,2.17,0,0,1-2.11.12,7.92,7.92,0,0,1-2-1.23A11.86,11.86,0,0,0,219.1,334c-.53-.22-.87,0-.89.6a4.13,4.13,0,0,0,.73,2.38,10.51,10.51,0,0,0,2.25,2.5,2.5,2.5,0,0,1,.81.84,1.38,1.38,0,0,1-.09,1.59,1.28,1.28,0,0,1-1.4.34,5.66,5.66,0,0,1-1.64-.84,8.61,8.61,0,0,0-1.39-1c-1.11-.61-1.59-.45-2.2.61a1.18,1.18,0,0,0,.61,1.91,18.59,18.59,0,0,0,3.23,1c1.11.28,1.58.82,1.51,1.67a1.79,1.79,0,0,1-1.77,1.51,3.51,3.51,0,0,1-2.13-.4,16.23,16.23,0,0,0-1.91-1.06,3.24,3.24,0,0,1-2.19-2.55A5.37,5.37,0,0,1,213.69,338.79Z"/><path class="cls-5" d="M228.1,326.94c.49-.62.94-1.26,1.47-1.85.36-.4.73-.39,1.09.12a3.18,3.18,0,0,1,0,4.05,21.86,21.86,0,0,1-1.59,2c-1.42,1.49-3.68,2.42-6,.26a9.9,9.9,0,0,1-2.8-4.73,2.39,2.39,0,0,1,1.28-3c1.17-.54,2.2.09,1.94,1.32-.39,1.79.54,2.85,1.74,3.86.53.45,1,.5,1.4-.11s1-1.24,1.46-1.87Z"/><path class="cls-5" d="M222.32,318.65a5.26,5.26,0,0,1-.16-5.42,1.77,1.77,0,0,1,2.41-.43,7,7,0,0,1,1.33,1,11,11,0,0,1,.89,1.13.61.61,0,0,0,.63-.28,1.25,1.25,0,0,1,1.67-.33,1.51,1.51,0,0,1,.45,1.83,4.83,4.83,0,0,1-1.59,2.14,1.54,1.54,0,0,1-2.24-.39c-.46-.63-.8-1.35-1.21-2-.2-.33-.42-.72-.88-.65s-.49.44-.59.75C222.79,316.8,222.6,317.61,222.32,318.65Z"/><path class="cls-5" d="M209.81,354.26c-.63.92-1.22,1.3-1.93,1s-.65-1.09-.44-1.77l1.29-4a3.21,3.21,0,0,1,.32-.76,1.41,1.41,0,0,1,1.65-.54,1.1,1.1,0,0,1,.71,1.36A14.47,14.47,0,0,1,209.81,354.26Z"/><path class="cls-5" d="M212.88,349.86c.49-.7.89-1.07,1.32-.95s.62.65.66,1.11a7.33,7.33,0,0,1-1.29,4.79,1.68,1.68,0,0,1-1.12.7c-.79.15-1.47-.37-1.24-1.11C211.71,352.74,212.4,351.14,212.88,349.86Z"/><path class="cls-5" d="M240.73,267.76c-2,.16-21.72,16.4-23.61,19.38-1.35,2.13,1.1,10.39,2.92,20.41a55.18,55.18,0,0,0,5.11-4c5.43,5,13.92,17.36,15.43,16.33s3.85-5.52,16-14.49c8.33-6.11,15.07-10.3,15.07-10.3-1.25-1.94-11.49-13.12-14.67-16.4l3.88-4C255.17,272.37,240.73,267.76,240.73,267.76Zm.61,37.13-4.06,3.73-3.5-4,4.36-3.63Zm-4.28-5.15-4.28,3.76-3.23-3.82,4.54-3.93Zm9.49.68-3.91,3.76c-.48-.57-3.44-4.26-3.44-4.26l4.23-3.52C244,297.1,246.55,300.42,246.55,300.42Zm-4.17-5s-3.39,3.08-4,3.54c0,0-2.8-3.41-3.28-4l4.08-3.29S241.79,294.8,242.38,295.42Zm24.28.41a45,45,0,0,0-9.72,6.17l-11.79-14s6.36-5.28,8.62-7.05C254,280.81,265.13,293.62,266.66,295.83Z"/><path class="cls-5" d="M148.73,348.57a8.1,8.1,0,0,1,.85,2.43c-4.07,1.83-25.79-6.18-27-5.07-1,1,1.17,1.65,1.17,1.65.36,2.36-4.89,19.77-6.67,20.89-1.21-.62-3-1.3-2.19.32,1.38,2.86,10.2,24.76,11.55,31.84-1.19.33-3.81-1.3-3.53.37.17,1,5.58,2.32,6.09,2.12,3.9-1.57,3.74-6.49,7.43-7.87-6.76-5.54-16.44-20.91-16.3-20.92,4.2,3.8,13.49,12.92,19.22,18.68,2.27-4.68,14.67-.68,19.92-8.29-2.77-12.46-7.85-27.13-7.26-34.39l-.81-1.54C149.49,346.14,148.07,347.39,148.73,348.57Zm3.53,32.53c-2.4,2.46-33.59-10.51-32.29-10.92,1.78-.55,8.67,2.76,17,5.58C146.21,378.88,152.26,381.1,152.26,381.1Z"/><path class="cls-5" d="M143.91,266.6c-4.09,8.55-8.66,14.3-14.19,23.06-5.07-.66-5.82,2.71-2.48,4.52,1.87,1,7.85,5.56,9.78,2.42,1.23-2-2.36-2.87-1.07-5.33,2-3.85,12.35-16.42,14-20.25,20.91,5.73,30.06-20.63,14.42-29.58C150.74,233.65,133.62,250.26,143.91,266.6Zm11.4-22.69c.4,1-5.85,4.91-6.66,5.9-1,1.16-1.79,6.24-3.59,5.94C139.44,254.79,153.46,239.38,155.31,243.91Zm2.7-.37c1.4-1.76,3.57.39,2.29,2C159.81,246.19,156.68,245.2,158,243.54Z"/><path class="cls-5" d="M184.09,258.36c-1.61-.8-11.65-7.55-8.37-1.29.77,1.43-8.25,19.38-10.71,21.64-2,1.87-23.73,8.73-21,14.26,3.69,7.43,18.79,16.07,27.57,15.39,5.74-.45,1.7-21.57,1.51-25.59-.33-7.45,7.68-18.8,8.7-21.28,0,0,6.35-.8,2.27-3.13S185,258.83,184.09,258.36ZM162.32,284c1.39,1.56-13.11,8.92-13.43,8.62-1.83-1.73,12-10.3,13.43-8.62C162.74,284.5,161.92,283.57,162.32,284Zm3,1.1c-.66.65-1.63.34-1.53-.75.2-2.24,3.14-.86,1.53.75Z"/><path class="cls-5" d="M212.65,502.18c-1.56,1.52-1.52,3.31-1.3,5.21a5.54,5.54,0,0,1-2.4-.65c-3.64-1.76-7.3-3.48-10.86-5.41-6.51-3.53-12-8.37-17.78-12.9-2.8-2.21-5.63-4.4-8.45-6.6-1-.75-1.87-1.53-2.82-2.27a2.63,2.63,0,0,1-1-2c-.09-1.26.22-1.55,1.46-1.81a4.2,4.2,0,0,1,3.58,1.14q2.46,1.89,4.8,3.94a104.47,104.47,0,0,0,13.1,9.29c1.88,1.19,3.61,2.57,5.48,3.78a98.75,98.75,0,0,0,14.36,7.46Z"/><path class="cls-4" d="M188.64,249.62c-6,4.53-10.6-9.08-3.11-9.4C191.52,240,192.39,246.77,188.64,249.62Z"/><path class="cls-4" d="M178.55,239.43c-4.33,3.29-7.68-6.57-2.25-6.81C180.64,232.43,181.27,237.37,178.55,239.43Z"/><path class="cls-4" d="M167.15,232.27c-2.88,2.19-5.11-4.38-1.5-4.54C168.54,227.61,169,230.9,167.15,232.27Z"/><path class="cls-4" d="M184.67,233.68c-2.14,1.62-3.8-3.25-1.12-3.37A1.83,1.83,0,0,1,184.67,233.68Z"/><path class="cls-4" d="M178.64,249.05c-3.19,2.42-5.66-4.84-1.66-5C180.18,243.89,180.65,247.53,178.64,249.05Z"/><path class="cls-4" d="M172.85,229.88c-1.62,1.23-2.88-2.47-.84-2.56A1.39,1.39,0,0,1,172.85,229.88Z"/><path class="cls-5" d="M137.81,420.3c1.19,4.67,6.15,19,7.39,22.09.52,1.25,1.06,2.5,1.6,3.74a64.4,64.4,0,0,0,1.43-11.47c.84-21.55-17.53-29.12-17.53-29.12a128.88,128.88,0,0,1,.09,15.36c-.89,24,21.92,34.46,18.77,30.86C148.37,450.4,135.5,433.79,137.81,420.3Z"/><path class="cls-4" d="M150.59,405.72c2.68,1.72,7.56,6.47,9.19,7.94.67.6,1.32,1.22,2,1.84a38.47,38.47,0,0,1-7.81-1c-14.17-3.26-14-18.14-14-18.14a73.21,73.21,0,0,0,9.9,2.84c15.77,3.66,16.24,22.32,14.78,19.36C164.09,417.43,158,405.54,150.59,405.72Z"/><path class="cls-5" d="M161.46,435.89c2.32,4,10.63,14.67,20.25,17.82-1.83-3.15-3-6.24-4.13-11.68-4.31-20.24-27.31-22.6-27.31-22.6a52,52,0,0,1,3.3,17.48c.35,18.69,22.79,20.9,31.25,21.8C179.81,457,163.15,448.32,161.46,435.89Z"/><path class="cls-4" d="M161.43,464.11c2.95,1.52,8.59,5.86,10.46,7.19.76.55,1.52,1.12,2.27,1.68a41.59,41.59,0,0,1-7.92-.54c-14.62-2.38-16.94-16.84-16.94-16.84a81.77,81.77,0,0,0,10.31,2.2c16.27,2.67,19.87,20.78,17.92,18C176.8,474.72,171.06,463.43,161.43,464.11Z"/><path class="cls-5" d="M188.62,469.75c-1-1.15-5.14,3-3.64,5.2,5,7.51,27.46,21.61,29.08,21.43,2.21-.25,7.22-.55,7.33-.81s-4-5.94-4.62-6.2C206.18,484.51,191.06,472.52,188.62,469.75Zm29.14,21.84c.19.24.48.83.68,1.06s.72.91.59,1.39c-.38,1.45-1.42,1.64-2.83,1.59a9.55,9.55,0,0,1-2.07,0c.06-.51.71-1,1.12-1.24a1.15,1.15,0,0,0,.59-1.52,4.22,4.22,0,0,1,.67-2C217,490.13,217.21,490.93,217.76,491.59Z"/><path class="cls-5" d="M182.45,472s.8-3.83,3.9-4.71c0,0-2.86-3.39-3.93-2.76s-2.92,2.7-2.87,4S182.45,472,182.45,472Z"/><path class="cls-4" d="M245.06,264.6s1.85-1.52.27-4.37c0,0,2.12,2.22,3.6,1.34,0,0-1.23,1.3.32,4.59C249.25,266.16,246.73,262.58,245.06,264.6Z"/><path class="cls-4" d="M257.55,269.75s2-1.81,0-4.91c0,0,2.5,2.36,4.11,1.29,0,0-1.3,1.53.63,5.12C262.33,271.25,259.29,267.39,257.55,269.75Z"/><path class="cls-4" d="M210.46,470.89c1.11-4.92.06-11.51-2.9-14.3-.52,3.52-.29,3.41-1.18,3.75-.1-3.67-.21-5.58-3.07-8.24-.38-.36.07.85-.41,1.47-.76-2.41-5.64-8.88-6.71-11.19-.35-.76.2,4.28.35,5.28-3.57-5.07-5.82-8-14-11.08-.08,12,3.59,15.46,7.87,19.64-1.26-.12-2.75-1.58-2.6-1.07,1.21,4.1,5,8,8.77,9.7-.49.13-3.65-.18-3.2.19a23.91,23.91,0,0,0,14,8.31s-10.82-14.65-13-21.05c5.41,6.34,23.13,31.76,24.58,32.75C220.28,480.86,211.24,473.32,210.46,470.89Z"/><path class="cls-4" d="M151.21,311.88a3.81,3.81,0,0,0-2.55.93c-1.37-.32-2.75-.62-4.13-.91.3-1.68.61-3.36.95-5a3.89,3.89,0,1,0-3.45-.29c-.3,1.52-.58,3-.85,4.55a67.4,67.4,0,0,1-14.68-3.71,3.89,3.89,0,1,0-3.92,4.19,3.81,3.81,0,0,0,2.6-1l.1.05a45.9,45.9,0,0,0,6.9,2.24,1.76,1.76,0,0,0-.42,1c-.84,6.58-.57,13.3-1.64,19.85a17.36,17.36,0,0,0-4.18-1.07c.11-4.25.53-8.48,1-12.7.25-2.25-3.21-2.27-3.45,0-.45,4.05-.85,8.1-1,12.17l-1.16-.18a3.88,3.88,0,0,0-3.7-2.9,3.94,3.94,0,0,0-.09,7.87,3.82,3.82,0,0,0,3.13-1.55l3.33.53c1.69.28,3.87.42,5.32,1.41a1.46,1.46,0,0,0,1.65.09,1.51,1.51,0,0,0,2.2-1.09,91.33,91.33,0,0,0,1.31-13c1.8.38,3.59.74,5.39,1.13a.31.31,0,0,0,0,.08c-.42,4.26-.69,8.54-1.14,12.8a3.9,3.9,0,1,0,3.39.69c.47-4.26.74-8.53,1.14-12.79,1.31.33,2.62.68,3.91,1.08,2.14.66,3.08-2.72,1-3.37-4.4-1.36-8.93-2.2-13.43-3.15.13-1.94.29-3.89.53-5.82a1.3,1.3,0,0,0,0-.34c1.2.25,2.4.47,3.59.67a2.67,2.67,0,0,0,.26.09c2.74.58,5.49,1.12,8.22,1.75a3.89,3.89,0,1,0,3.92-4.21Z"/><path class="cls-4" d="M347.78,112.14c-4.22-.39-5.82-1.66-7.3-5.55-.85-2.23-2.43-5.29.11-7s3.71-4.69,5-7.45c1.08-2.39,2.33-6.16,4.69-7.57a7,7,0,0,1,3.72-.8c2.34,0,.82,2.31.55,3.38-.67,2.63.37,6,3.38,5.68,3.25-.34,4.92-3.63,6-6.41,2.18-5.67,10.85-7,15.77-4.27,1,.52,5,5.32,1.1,5.2-4.56-.13-18.34,11.29-19.17,17.56C361,109.48,351,112.44,347.78,112.14Z"/><path class="cls-4" d="M366,71.42c4.09-1.75,13.22.33,13.44,5.88.15,3.77-3.62,2.45-6,2.13a9.8,9.8,0,0,0-7.37,1.39c-2.88,2-3.27,5.76-5.49,8.33-1.94,2.25-5.19,2.63-5.08-.93.2-6.49,4.76-13.83,10.47-16.8C368.29,70.43,364.22,72.33,366,71.42Z"/><path class="cls-4" d="M373.67,104c-3,2.64-7.5-3.27-5.61-5.92C370.69,94.41,377,101,373.67,104Z"/><path class="cls-4" d="M363.07,103.78c-.23-4.53,5.71-2.16,5.75,1.65C368.88,110.34,363.3,108.31,363.07,103.78Z"/><path class="cls-4" d="M373.06,94.62c-.24-4.53,5.7-2.16,5.74,1.65C378.86,101.18,373.29,99.15,373.06,94.62Z"/><path class="cls-4" d="M377.76,90.33c-.19-3.74,4.71-1.78,4.74,1.36C382.55,95.74,378,94.07,377.76,90.33Z"/><path class="cls-5" d="M387.75,183.16c3.66-2.6,16.09-11.68,18.65-13.61,1.46-1.1,1.45-2.58.48-4.14-3.05-4.91-13.84-21.68-27.08-26.06-2.09-.69-4.56,2.48-6.15,1.84s-1.16-6.08-3.66-1.49c-3.62,6.64-8.55,20.3-8.33,21.25s3.61,4.59,4.63,5.75c.35.4-2.82,7.61-.33,10.84,4.05,5.25,12-.15,12.94.76C380.54,179.91,385.81,184.54,387.75,183.16ZM364.15,158c4.55-5.52,9.69-10.54,13.75-16.45.34-.49,1.19-.06.84.45-4.11,6-9.29,11.06-13.89,16.64C364.46,159.1,363.77,158.45,364.15,158Zm5.23,11.36c1.32,1.25,5.57,5.18,6.88,6.44.41.4-6.05,2.74-8.09.74C365.81,174.21,368.93,168.93,369.38,169.35ZM385,180.13c2.24-2.18,4.91-3.9,6.93-7.13,1.16-1.86-14.44-16.77-16.5-17.84s-6.51,5.5-10.1,7.83c-.51.33-1.46-1.19-1-1.52,3.72-2.41,9.57-9.72,11.32-9.13s16,14.66,18.81,19.13c1,1.52-6.5,8.34-8,9.8C386.09,181.69,384.59,180.56,385,180.13Z"/><path class="cls-5" d="M392.62,67.22c-2.47.34-3.58,2.42-3.56,4.69,0,4.81-3.24,26.43-5.3,32.38-.17.51-.38.58-.8.48-1.29-.28-1.29-.28-1.85.79a8.39,8.39,0,0,0-.45.9c-.44,1.2-1.26,1.48-2.53,1.58-20.25,1.66-17.1,21.68-7.3,26s23.76-4,18.44-18.95c-.25-.69,1.09-3.83,1.72-4.28.27-.2-.3-.72-1-1.52,3.34-14.32,7.37-32.95,7.32-38.54C397.28,68.51,394.65,66.94,392.62,67.22ZM386.36,109a.78.78,0,0,1,1.21.22,2,2,0,0,1,.19.34,3.63,3.63,0,0,1-1.33,1.8.94.94,0,0,1-.7-.43C385.32,110.51,385.58,109.74,386.36,109Zm-3.09-1.76a2.84,2.84,0,0,1-.81,1.31.27.27,0,0,1-.41-.23,1.86,1.86,0,0,1,.78-1.42C383,106.81,383.18,106.92,383.27,107.26Zm-15.46,19.89c-3.11-5.8.15-11.55,1.67-12.63,2.59-1.86,11.31-5.79,15.58,1.51C393.17,129.87,373.05,136.88,367.81,127.15Zm16.62-19.65c.19-.21.43-.12.64,0a.73.73,0,0,1,.44.51,3.38,3.38,0,0,1-1.26,1.63c-.38,0-.7-.14-.66-.54A2.78,2.78,0,0,1,384.43,107.5Z"/><path class="cls-5" d="M369.18,121.75a7.63,7.63,0,0,1,.82-3.34,3.51,3.51,0,0,1,.81-1.17c.32-.27.67-.63,1.12-.34s.19.7.06,1a12.26,12.26,0,0,0-.84,4.18,2.41,2.41,0,0,0,.31,1.77.72.72,0,0,1-.21,1.11.86.86,0,0,1-1.17,0,2.25,2.25,0,0,1-1-1.81C369.08,122.66,369.14,122.18,369.18,121.75Z"/><path class="cls-5" d="M374,127.36c0,.59-.55.64-.94.71a.86.86,0,0,1-1.09-.79.84.84,0,0,1,.85-1C373.51,126.23,373.76,126.8,374,127.36Z"/><path class="cls-4" d="M279.14,155.36a2.25,2.25,0,0,1-1.11,1,35,35,0,0,1-5,1.58,1.15,1.15,0,0,1-1.56-.81,1.58,1.58,0,0,1,.76-1.75,23.29,23.29,0,0,1,5.27-2.45,1.28,1.28,0,0,1,1.66.69A2,2,0,0,1,279.14,155.36Z"/><path class="cls-4" d="M271.05,150c-.56.65-1.09,1.33-1.68,2-.82.86-1.48,1.08-1.91.64-.58-.6-.27-1.35.14-2,1-1.59,2.09-3.17,3.21-4.69a1.56,1.56,0,0,1,2.33-.46,1.75,1.75,0,0,1-.12,2.39c-.6.77-1.26,1.49-1.9,2.22Z"/><path class="cls-4" d="M262.36,150.32c-.36.61-.8,1-1.41.9A1.14,1.14,0,0,1,260,150a17.56,17.56,0,0,1,.59-4.25,1.36,1.36,0,0,1,1.41-1.12c.65,0,1.15.52,1.17,1.39A13.75,13.75,0,0,1,262.36,150.32Z"/><path class="cls-4" d="M252.45,178.3c0,.33.26.51.33.8a1.31,1.31,0,0,1-.36,1.47,1.29,1.29,0,0,1-1.52.18,25.26,25.26,0,0,1-2.44-1.63,1.08,1.08,0,0,1,.57-1.9,3.37,3.37,0,0,1,2,.4,7,7,0,0,0,1.45.72Z"/><path class="cls-4" d="M276.43,162.05a1.34,1.34,0,0,1,.91,1.43,1.11,1.11,0,0,1-1.25,1.15,12.11,12.11,0,0,0-2.33.23,1.19,1.19,0,0,1-.87-.1,1.27,1.27,0,0,1-.69-1.2,1.21,1.21,0,0,1,.65-1.07A7.11,7.11,0,0,1,276.43,162.05Z"/><path class="cls-6" d="M252.7,177.73a0,0,0,0,1,0,0h0Z"/><path class="cls-6" d="M264.14,155.87c-8.36-3.78-17.38,7-12.23,17.5-.11.15-.24.06-.37,0a1.29,1.29,0,0,0-1.59.73,1.4,1.4,0,0,0,.56,1.69c.44.39.92.74,1.38,1.1.3.23.71.33.8.77.63.28,1.27.58,1.95.13s.62-1.33.56-2C274.17,175.31,271.64,159.25,264.14,155.87Zm.56,13.82c-.44.36-.91.7-1.4.15s-.16-.91.25-1.26a8.5,8.5,0,0,0,1.37-1.9,3.46,3.46,0,0,0,.35-3.36,7.73,7.73,0,0,1-.37-1.12c-.07-.32-.15-.72.24-.91s.65.12.82.41c1,1.69,1.45,3.43.51,5.31-.15.31-.33.6-.5.9A4.67,4.67,0,0,1,264.7,169.69Z"/><path class="cls-5" d="M444.47,123.83c1.61-.17,3.73,16.14,11.2,22.9,1.78,1.62,1.79,2.3,4.17,2.12,1.25-.1,4.74-1.34,5-1.93a9.65,9.65,0,0,1-3.49-9.35c-8.74-.34-14.57-13.12-13.09-14.31.7-.56,2,5.49,6.08,8.88,4.58,3.81,12,5.05,13,5.14.62.05,1.36-.29,1.85.11s.35,1.11.55,1.67a28.1,28.1,0,0,0,1.61,3.48c.39.74.4,1-.34,1.33a7.86,7.86,0,0,0-3.72,3.46c-.66,1.08-7.6,4.3-10.25,2.94C449.37,146.31,442.86,124,444.47,123.83Z"/><path class="cls-5" d="M470.21,136.66l2.55,5.4s32,.91,53.07,20.16l11.55-2.53-5.1-12.79S522.85,134.23,470.21,136.66Z"/><path class="cls-4" d="M473.7,88a11.48,11.48,0,0,1,3.56,4.81,4.86,4.86,0,0,1-1.05,5,7.86,7.86,0,0,1-6.54,3.15c-3.57-.19-6.62-5.59-5.31-9.29C465.63,88.11,470.37,86.1,473.7,88Z"/><path class="cls-5" d="M488.91,98.19c5.13,2.62,3.36,7.33,2.23,8.67a7,7,0,0,1-5.81,2.79c-3.16-.16-5.87-5-4.7-8.24S486,96.48,488.91,98.19Z"/><path class="cls-5" d="M363,135.79c-8.56-10.53-22.85-19.69-30.79-31.59,2.59-3.52,8.91-11.14,5-20.45-1.92-4.51-4.52-2-4,.51,1,4.61-.15,7.54-5.33,12.68a49.85,49.85,0,0,1-10.78,7.88,46,46,0,0,0-9.63,6.1c-4.75,3.9-11.91,10.75-14.83,13.44-1.54,1.42-3.19,2-5.79,4.83-3.44,3.7-7.71,7.68-16.75,9.06-2.67.52-2.28,1.56.42,2.27,3.19.84,13.22-1.32,18.1-7.45,3,13.61-2.6,27.27-3.14,29.32-.63,2.41,1.43,2.76,2.22,1,.58-1.32,5.22-7.92,7.26-14.62,2.85,4.46,3.89,15.93,4.37,16.79a1.35,1.35,0,0,0,2.52,0c.48-.72.48-21.53-6.52-38.72,4.4-3.2,7.71-6.3,8.47-6.74,8.58,20,4.55,39,7.92,38.6,1,.23,6.11-11.1,3.21-24.4,4.56,5.29,10.61,18.68,11.56,19.85,1.82,2.24,3.58-.3,3.35-1-7.86-25.26-18.47-39.08-18.05-40,1-2.41,8-5.9,8.73-5,1.85,2.38,15.48,38.93,16.19,40.11.6,1,1.32,1.15,2.09.29a4.44,4.44,0,0,0,1-2.65c.5-5.47-2.07-13.7-2.76-23.55.94.33,15.14,13.16,23.26,16.94C366.56,142.16,364.72,137.88,363,135.79Z"/><path class="cls-5" d="M289.36,115.34a5.28,5.28,0,0,1,2.1,8.21A6.58,6.58,0,0,1,286,126.2c-3-.16-5.56-4.7-4.45-7.8S286.56,113.73,289.36,115.34Z"/><path class="cls-5" d="M320.44,91.69a5.28,5.28,0,0,1,2.11,8.21,6.6,6.6,0,0,1-5.5,2.64c-3-.16-5.55-4.69-4.45-7.8S317.65,90.07,320.44,91.69Z"/><path class="cls-5" d="M303.07,103.44a5.28,5.28,0,0,1,2.1,8.21,6.6,6.6,0,0,1-5.49,2.64c-3-.16-5.56-4.69-4.45-7.8S300.27,101.82,303.07,103.44Z"/><path class="cls-4" d="M501.35,108a8.87,8.87,0,0,1,2.75,3.73,3.75,3.75,0,0,1-.81,3.84,6.09,6.09,0,0,1-5.07,2.44c-2.76-.14-5.12-4.33-4.1-7.19S498.77,106.53,501.35,108Z"/><path class="cls-5" d="M467.06,130.08c0,2.76,5.24.74,10.26,1,5.18.24,9.18,2.18,9.63-.24s5.06-17.41-3.14-20.44C474.7,107,467.14,124.39,467.06,130.08Z"/><path class="cls-4" d="M462.54,100.73c4.11-.86,9.32,2.86,9.47,8.91.1,4.18-7.76,13.51-8.22,20.09-.18,2.47-13.26-3.83-10.69-10.25S452.88,102.75,462.54,100.73Z"/><path class="cls-4" d="M495.86,119.86c7.75-1,10.31,7.81,10.34,14.41,0,1.22-4.82-1.08-9.41-1.49s-8.8.91-7.83-2.45C490,126.73,490.8,120.49,495.86,119.86Z"/><path class="cls-5" d="M282,181.42l3.34,5.91a28.23,28.23,0,0,1,5.3-.89l-3.08-5.89A25.24,25.24,0,0,0,282,181.42Z"/><path class="cls-5" d="M277.29,175a14.11,14.11,0,0,0-3.75,2.75l2.79,5a21.46,21.46,0,0,1,4.29-1.88Z"/><path class="cls-5" d="M287.07,179.66l-3.3-6.29a15,15,0,0,0-4.52.78c-.4.14-.77.28-1.12.43l3.39,6A26.65,26.65,0,0,1,287.07,179.66Z"/><path class="cls-5" d="M294.76,180.33l-2.44-5.18c-.22-.07-.44-.14-.66-.23a20.87,20.87,0,0,0-6.84-1.54l3.27,6.24A26.85,26.85,0,0,1,294.76,180.33Z"/><path class="cls-5" d="M291.63,186.38a29.19,29.19,0,0,1,6.18.43l-2.54-5.4a25.43,25.43,0,0,0-6.7-.87Z"/><path class="cls-5" d="M306.84,178l-2.34-4.51a19.54,19.54,0,0,1-3.38,1.52c-.31.11-.62.19-.93.28l2.37,4.94A23.92,23.92,0,0,0,306.84,178Z"/><path class="cls-5" d="M315.51,170.86l-2.9-3.63c-.47.53-2.07,1.71-3.06,2.6l2.54,4C313.32,172.73,315.07,171.38,315.51,170.86Z"/><path class="cls-5" d="M308,178.29l3.25,6.25a41.74,41.74,0,0,0,4.42-3.23l-3.81-6A40.24,40.24,0,0,1,308,178.29Z"/><path class="cls-5" d="M311.4,174.5l-2.55-4.06A28.37,28.37,0,0,1,305.3,173l2.31,4.46A41.78,41.78,0,0,0,311.4,174.5Z"/><path class="cls-5" d="M296.41,180.77a9.09,9.09,0,0,0,5.27-.23l-2.41-5a13.21,13.21,0,0,1-5.77,0l2.42,5.14Z"/><path class="cls-5" d="M316.4,180.71a39.49,39.49,0,0,0,3.29-3.18l-4-5.75c-.52.6-1.88,1.76-3.09,2.87Z"/><path class="cls-5" d="M305,187.36l-2.88-6a10.12,10.12,0,0,1-5.63.37l2.5,5.32c.48.11,1,.22,1.47.36A9.19,9.19,0,0,0,305,187.36Z"/><path class="cls-5" d="M306.55,187.84l-.3.09,3.07,6.4a10,10,0,0,0,3.5-.51,11.6,11.6,0,0,0,1.8-.8l-3.73-7.21A24.33,24.33,0,0,1,306.55,187.84Z"/><path class="cls-5" d="M311.68,185.33l3.74,7.22a19.28,19.28,0,0,0,4.63-4.31l-3.88-6.17A44.07,44.07,0,0,1,311.68,185.33Z"/><path class="cls-5" d="M316.88,181.47l3.77,6a31.47,31.47,0,0,0,3-5l-3.37-4.22A41.6,41.6,0,0,1,316.88,181.47Z"/><path class="cls-5" d="M313,160.76c-1.41.05-10.49,14.55-22.29,8.83-11.48-5.57-22.81,7.42-22.78,8,.25.84,12.08,22.63,13.26,24.23.58.77,7.46-7.84,24.34-3.1,8.73,2.46,15.47-3.84,23.75-16.27Zm.29,34.37a11.46,11.46,0,0,1-7.45,0c-7-2.31-13.75-1-18.22.51a29.05,29.05,0,0,0-4,1.66l-.6.33-11.12-20,.28-.36a15.18,15.18,0,0,1,6.65-4.37c4.09-1.38,8.59-1.11,13.37.8a12.08,12.08,0,0,0,8.51.07c6-2,11.37-7.94,11.42-8l.54-.66,12.61,17.21-.17.38C324.91,183.05,320.77,192.59,313.26,195.13Z"/><path class="cls-5" d="M307.25,178.8a24.2,24.2,0,0,1-4.31,2.24l2.92,6.08a21.63,21.63,0,0,0,4.62-2.1Z"/><path class="cls-5" d="M280.45,190.18l3.09,5.56a32,32,0,0,1,3.61-1.45c.28-.1.57-.19.88-.28l-3.16-5.6A24.59,24.59,0,0,0,280.45,190.18Z"/><path class="cls-5" d="M300.17,188.29l-.73-.19,2.17,4.62a24.87,24.87,0,0,1,4.63,1.06,12.42,12.42,0,0,0,2,.47l-2.9-6.07A10.14,10.14,0,0,1,300.17,188.29Z"/><path class="cls-5" d="M284.41,187.59l-3.34-5.9a20.11,20.11,0,0,0-4.29,1.87l3.22,5.81A26.44,26.44,0,0,1,284.41,187.59Z"/><path class="cls-5" d="M285.79,188.16l3.14,5.58a33.63,33.63,0,0,1,5-1l-2.82-5.4A27.51,27.51,0,0,0,285.79,188.16Z"/><path class="cls-5" d="M292.11,187.28l2.78,5.32a29.48,29.48,0,0,1,5.64,0l-2.23-4.75A28.59,28.59,0,0,0,292.11,187.28Z"/><path class="cls-4" d="M351.4,155.94a66,66,0,0,0-5.06-5.57c-6.5-4.5-6.88,4-26.26,12-2.39,1,11.81,13.7,13.21,14.45a7.7,7.7,0,0,0,.88,5.12,4.23,4.23,0,0,0,3.88,2.13,6.56,6.56,0,0,0,4.26-2.72c4.43,1.57,11.23,2.6,14.08-1.47,2.28-3.27,2.32-6.95.37-14.75C360,160.92,357.27,152.36,351.4,155.94Zm-15.92,24.29a3.24,3.24,0,0,1-.37-2.52,54,54,0,0,0,5.77,3.1C339.24,182.51,337.14,182.59,335.48,180.23Zm20.68-16.4c-1.42-2-2.1-4.68-3.62-6.4C355.58,155.63,357.11,160.87,356.16,163.83Z"/><path class="cls-4" d="M366.74,201.16c-.48.57,3.08,4.54,3.68,3.55,4.51-7.45,11.89-14.35,12.93-15.35s-3.79-3.28-4.57-2.45S368.5,199.1,366.74,201.16Z"/><path class="cls-4" d="M365.3,196c-.35.41,2.23,3.28,2.66,2.57a60.08,60.08,0,0,1,9.35-11.1c.74-.72-2.75-2.37-3.3-1.77S366.58,194.53,365.3,196Z"/><path class="cls-4" d="M356.71,182.26a31.58,31.58,0,0,1,9.72,9.51l3.41-4.28s-3.25.26-11.61-7.84Z"/><path class="cls-5" d="M401.39,106.77c25.73-3,45.46,3.85,45.53,3.21-3.43-12.5,9-20.85,7.76-27.38a16.36,16.36,0,0,1,8.24,1.71c.07,3.48-3.36,7.59-8.34,14.48-5.33,7.35-3.07,16.21-4.45,18.84-2.4-.47-32.87-6.47-49.25-3C400.84,113.27,398.89,110.28,401.39,106.77Z"/><path class="cls-5" d="M410.8,69.69s-16.44,20.11-11.32,35.77c5.72-2.21,32.67-.09,45.46,2-2-13.36,5.45-12.33,8.56-28.59C445.49,74.24,425.67,70.18,410.8,69.69ZM427.12,77c.49-1.07,2.2-.45,1.72.62a35,35,0,0,0-2.7,7.36c-.23,1.14-2.06,1-1.82-.17A37.15,37.15,0,0,1,427.12,77Zm-6.59-1.38a.91.91,0,0,1,1.71.62,45,45,0,0,0-2.57,7.07c-.24,1.13-2.07,1-1.83-.17A48.49,48.49,0,0,1,420.53,75.58Zm-10.59,7.27a79,79,0,0,1,4.34-9.45c.6-1,2.09,0,1.49,1a76.53,76.53,0,0,0-4.12,9C411.19,84.55,409.47,83.93,409.94,82.85ZM407.48,99c-1.32-1.14-1.61-8.33,1.84-10.9,2.16-1.59,15.55,1.33,15.55,1.33s-2.18,7-1.78,9.67ZM428,98.71a57.89,57.89,0,0,1,7.5-20.83.92.92,0,0,1,1.45-.07L437,78a.85.85,0,0,1,.15.89l-.16.32a1,1,0,0,1-.53.47,55.55,55.55,0,0,0-6.73,19.21C429.59,100,427.77,99.87,428,98.71Zm15.5-18.82c-.12.23-.23.45-.34.68a.93.93,0,0,1-.34.39c-.22.54-.41,1.24-.55,1.54-.39.88-.77,1.75-1.15,2.63-.66,1.56-1.32,3.13-1.88,4.74a28.39,28.39,0,0,0-1.95,10.48c.05,1.15-1.76,1.47-1.81.3a30,30,0,0,1,2.05-11.4c.74-2,1.57-4.07,2.46-6.06.52-1.2,1-3.47,2.07-4.3C442.68,78.36,443.89,79,443.45,79.89Z"/><path class="cls-5" d="M430.45,117.53S415.2,116.78,404,123l-.9-6.32S421,113.8,430.45,117.53Z"/><path class="cls-5" d="M449.39,151.89c-8.86,2.12-21.44,4.56-35.72,12.31-3.73-8.57-13.29-22.75-19.79-28.78-.93-.86-1.42.34-.49,1.2,6.49,6,15.51,19.69,19.05,28.34.2.51.66.91,1.19.65,14-6.94,26.57-10.84,35.63-12C450.5,153.41,450.63,151.59,449.39,151.89Z"/><path class="cls-4" d="M346.89,147.88s3-2.79,0-7.54c0,0,3.87,3.6,6.33,1.95,0,0-2,2.36,1,7.87C354.27,150.16,349.56,144.24,346.89,147.88Z"/><path class="cls-4" d="M357.68,149.62s1.76-1.63,0-4.4c0,0,2.26,2.11,3.7,1.14,0,0-1.16,1.38.59,4.59C362,151,359.23,147.5,357.68,149.62Z"/><path class="cls-4" d="M414.68,161.91S407,147.34,403.06,143c-1.57-1.74,2.54-6.13,4.57-4.61,4.82,3.61,13.18,20.75,13.18,20.75Z"/><path class="cls-4" d="M422.17,158.35s-3.24-8.26-6.95-13.08c-1.88-2.44,3.91-5.71,5.1-5.22,3.67,1.5,8.81,15.12,8.81,15.12Z"/><path class="cls-4" d="M431.49,154.78s-7.55-14.47-9.17-18.53c-1.41-3.52,3.36-5.73,4.56-4.93,3.71,2.47,13.94,21.74,11.2,21.73A19.24,19.24,0,0,0,431.49,154.78Z"/><path class="cls-4" d="M441.3,152.29s-8.57-18-10.5-23c-1.67-4.35,2.68-6.56,3.9-5.48,3.77,3.3,15.35,27.33,12.73,27.06S441.3,152.29,441.3,152.29Z"/><path class="cls-7" d="M429.68,120.58h-.19a.58.58,0,0,0-.26,0l-1.93.06c-.61,0-.74,1-.11.93l.8,0-7.21,5.82a.4.4,0,0,0-.13.16L416,137l-15.58-2.62a.5.5,0,0,0-.57.38.43.43,0,0,0,.37.54L416.12,138a.44.44,0,0,0,.3,0,.45.45,0,0,0,.24-.23l4.81-9.69,7.72-6.23a4.39,4.39,0,0,1-.17,1.73.47.47,0,0,0,.9.3,6.81,6.81,0,0,0,.18-2.84A.44.44,0,0,0,429.68,120.58Z"/><path class="cls-7" d="M413,128.45a14.57,14.57,0,0,1-2.38.26c-.1-2.08-1.6-4-3.87-2.72l-.08.06c-.54-.36-1.32.33-.81.85s.86.91,1.27,1.38l.07.15a.52.52,0,0,0,.32.3c.71.83,1.41,1.69,2.11,2.53a20.27,20.27,0,0,0,3.2,3.53.61.61,0,0,0,.7-1,19.15,19.15,0,0,1-3-3.31l-.37-.46h.06c.94-.37,2-.1,2.95-.38C413.94,129.42,413.75,128.23,413,128.45Zm-3.58.66c-.42-.5-.84-1-1.27-1.48l-.35-.77C409,126.55,409.5,127.9,409.43,129.11Z"/><path class="cls-7" d="M416.53,128.49c-.42-.31-.81-.66-1.21-1l-.35-.3c.59-.92,1.07-1.76.59-2.9a.57.57,0,0,0-.48-.35,2.8,2.8,0,0,0-1.69.45,2.75,2.75,0,0,0-.66.7.6.6,0,0,0-.64,1,23.53,23.53,0,0,0,3.47,3.22c.36.28.89.8,1.4.71.75-.12.52-.89.24-1.32A.47.47,0,0,0,416.53,128.49Zm-2-3.31a2,2,0,0,1-.47,1.2c-.16-.14-.31-.29-.46-.45A1.7,1.7,0,0,1,414.55,125.18Z"/><path class="cls-8" d="M320.45,223.56s-10.53-7-9.76-9.45,6.85-.25,6.85-.25-7.47-9.26-3.23-7.39l6.11,2.68s-5.65-11.92-2.75-9.93a50.92,50.92,0,0,1,6.66,6.06s-1.74-10.05.76-8a74.45,74.45,0,0,1,6.42,6.59s3.82,6.18,6,.44S341,215.75,341,215.75l-19.17,8.51Z"/><path class="cls-8" d="M429.79,198.41a22.33,22.33,0,0,1,.79,11.55c-1.68,7.08-2.78,10.49-2.78,10.49s8.37,11.14,20.07,9.61a27.44,27.44,0,0,0,17.6-9.47s-3.61-7.94-3.18-12.21a61.61,61.61,0,0,1,1.49-8.31l13-16.28s7.29-1.5,8.61-3.86,2.29-2.9,2.07-5.55-.41-5.44-1.93-6.6a14.65,14.65,0,0,0-4.42-1.86,77.89,77.89,0,0,0-1.67-14.81c-1.69-7.86-7.09-22.09-19.54-23.69s-26.11,2.65-30.12,13.48S423,162.52,423,162.52a5.75,5.75,0,0,0-5.22,2,18.35,18.35,0,0,0-3.05,6.37s-.94,4.94,1.57,7,6.37,1,6.37,1a29.18,29.18,0,0,0,3.72,11.44C429.85,196.58,429.79,198.41,429.79,198.41Z"/><path class="cls-8" d="M492.92,394.58s-5.1,11.55-3.13,13.21,5.91-3.48,5.91-3.48-1.3,11.82,1.26,8l3.7-5.55s1.67,13.09,3,9.85a51.74,51.74,0,0,0,2.35-8.69s3.95,9.4,4.94,6.32a73.74,73.74,0,0,0,1.86-9s-.11-7.26,4.84-3.62-3.27-11.49-3.27-11.49l-20.73,3.17Z"/><polygon class="cls-9" points="482.84 393.83 491.4 585 444.77 585.24 431.22 425.48 423.68 582.46 381.86 580.43 377.45 397.18 482.84 393.83"/><path class="cls-10" d="M429.08,155.56s-3.65,8-4.66,12.25-.36,4.95-4.85,3.13-13.14-12.17-9.43-18.42,5.43-5.15,5.43-5.15-2.14-10.07,5-16.24,10.2-8.88,14.9-8.17a37.91,37.91,0,0,1,10,3.45s7.81-9.53,11.23-10.23,8.8-2.57,15.4,2.36,17,12.14,18.19,24.16-4.06,20.29-5.62,25.4-4.84,4.1-4.84,4.1-4.16-23.79-5.43-25.19-5.22-5.06-7.48-3.36-8.17,6.36-14.1,6-15.85-3-15.85-3,.12,4.46-3.86,5.06S429.08,155.56,429.08,155.56Z"/><path class="cls-10" d="M451,156.55l-5.22,24.91,11.41-4.21s1.72-2.47-.71-1.48-8.9,3.52-8.9,3.52Z"/><ellipse class="cls-10" cx="438.78" cy="162.96" rx="2.61" ry="1.04" transform="translate(196.41 563.39) rotate(-79.19)"/><ellipse class="cls-10" cx="462.25" cy="164.06" rx="2.61" ry="1.04" transform="translate(214.39 587.34) rotate(-79.19)"/><path class="cls-10" d="M449.48,190.49c2.2.72,4.34,1.22,6.59.41a14.73,14.73,0,0,0,5.44-3.94c.78-.81-.45-2.05-1.23-1.23a13.67,13.67,0,0,1-4.47,3.38c-2,.84-3.88.34-5.87-.31-1.07-.35-1.53,1.34-.46,1.69Z"/><path class="cls-10" d="M430.13,157.26c2-3.67,9.47-5.83,12.31-2.22.79,1,2.2-.41,1.41-1.41-3.68-4.7-12.91-2.13-15.45,2.62-.61,1.14,1.12,2.15,1.73,1Z"/><path class="cls-10" d="M459.77,155c2.81-3.07,10.62-3.33,12.48.88.51,1.18,2.24.16,1.72-1-2.4-5.46-12-5.27-15.62-1.3-.87.95.55,2.37,1.42,1.42Z"/><path class="cls-10" d="M426.9,177.56a4,4,0,0,1,.45,1.79.35.35,0,0,0,.7,0,4.9,4.9,0,0,0-.55-2.15c-.2-.4-.81,0-.6.36Z"/><path class="cls-10" d="M430.05,177.43a3.19,3.19,0,0,1,.3,1.8c-.05.45.65.45.7,0a3.76,3.76,0,0,0-.4-2.16c-.2-.4-.8,0-.6.36Z"/><path class="cls-10" d="M471.4,177.29a4.69,4.69,0,0,0-.87,1.93c-.09.44.58.63.67.19a4.23,4.23,0,0,1,.81-1.76c.27-.36-.33-.71-.61-.36Z"/><path class="cls-10" d="M468.33,176.6a3.75,3.75,0,0,0-.75,2.06c0,.45.67.45.7,0a3.07,3.07,0,0,1,.66-1.71c.27-.36-.34-.71-.61-.35Z"/><path class="cls-7" d="M465.53,219.66c-.93-.33.36-.83-.49-.34-1.18.68-10.8,10.18-19.83,10.2-8.82,0-17.07-9.44-17.53-9.27-5.51,2-36.27,4.69-48.85,15.83-6.31,5.59-10,8.92-12.1,10.9a3.39,3.39,0,0,1-5.18-.68l-18.37-29.18a3.4,3.4,0,0,0-4.2-1.32l-17.52,7.41a3.41,3.41,0,0,0-2,3.95l12.79,51.34a3.73,3.73,0,0,1,.09.46c.19,1.94,2.07,16.4,14.43,21.56,9.6,4,28.83-4.34,38.7-9.25a3.39,3.39,0,0,1,4.83,3.68L370.65,398.68a3.4,3.4,0,0,0,3.34,4l106.57-.24a3.4,3.4,0,0,0,3.39-3.35l.16-11.54c.06-4.37,6.54-4.51,6.78-.14h0a3.39,3.39,0,0,0,3.95,3.16L510.55,388a3.41,3.41,0,0,0,2.83-3.26l2.18-79.49s2.44-66.88-17.94-76.61C482.47,221.37,468.62,220.74,465.53,219.66Z"/><path class="cls-10" d="M399.1,284.56a170.31,170.31,0,0,1-21,9.92c-7.09,2.87-14.34,5.43-22,5.87-.64,0-.64,1,0,1,7.79-.45,15.12-3,22.29-5.91a169.88,169.88,0,0,0,21.28-10,.5.5,0,0,0-.5-.86Z"/><path class="cls-10" d="M351.73,232.51c3.94,6.63,9.07,12.51,12.69,19.34.3.57,1.17.06.86-.51-3.62-6.82-8.74-12.71-12.69-19.33a.5.5,0,0,0-.86.5Z"/><path class="cls-10" d="M478.89,283.71q6.12,49.53,7.81,99.47c0,.64,1,.64,1,0q-1.67-49.89-7.81-99.47c-.08-.63-1.08-.64-1,0Z"/><path class="cls-10" d="M429.11,425.17q-1.47,59.06-5.13,118-1,16.66-2.25,33.32c0,.64,1,.64,1,0q4.29-58.92,6.38-117.95.58-16.69,1-33.39c0-.64-1-.64-1,0Z"/><path class="cls-10" d="M440.57,203.87c7.5,1.32,15.58,2.5,22.31-1.94.54-.35,0-1.22-.5-.86-6.5,4.28-14.31,3.1-21.55,1.83-.63-.11-.9.85-.26,1Z"/><path class="cls-10" d="M338,202.83a7.82,7.82,0,0,0-2.3,3.31c-.22.6.75.87,1,.27a6.68,6.68,0,0,1,2-2.87c.49-.42-.22-1.12-.71-.71Z"/><path class="cls-10" d="M323.53,197.47l.17,7.65a.5.5,0,0,0,1,0l-.17-7.65c0-.64-1-.64-1,0Z"/><path class="cls-10" d="M316.32,200.17c.77,2.84,1.67,5.62,2.71,8.36.23.6,1.19.34,1-.26a84.85,84.85,0,0,1-2.71-8.36.5.5,0,0,0-1,.26Z"/><path class="cls-10" d="M313,207.16a23,23,0,0,0,4.12,6.08c.44.47,1.15-.24.71-.71a22.14,22.14,0,0,1-4-5.88c-.27-.58-1.13-.08-.86.51Z"/><path class="cls-10" d="M310.94,216c.91.55,1.24,1.71,1.94,2.47a9.68,9.68,0,0,0,2.08,1.58c1.81,1.08,3.89,1.79,5,3.73a.5.5,0,0,0,.87-.51c-1-1.81-2.76-2.67-4.52-3.63a8.74,8.74,0,0,1-2.92-2.18c-.66-.85-1-1.75-1.92-2.32-.55-.34-1.05.53-.5.86Z"/><path class="cls-10" d="M422.17,185a115.71,115.71,0,0,0,8.55,15.6c.35.54,1.22,0,.87-.51A115.71,115.71,0,0,1,423,184.5c-.27-.58-1.13-.07-.87.51Z"/><path class="cls-7" d="M352.15,344.47l23.3-7.46s9.41,38.18,7.18,60.26-2.19,38.48-15.95,37.6S335,424.57,335,424.57l17.41,84L236.92,525.23l.45-99.19-7,79.83-22.51.64S197,450,203.24,418.69s16.82-51.36,16.82-51.36l14.16-26.5s8.38,2,18.17,4.6,24.05,1.38,32.71-1.41,24.08-14.36,24.08-14.36l17.75,23.79,17.58,21.76,6.3,9.72Z"/><path class="cls-9" d="M252,247.61s-10.82,7.37-21.42,24a247.54,247.54,0,0,0-16.9,31.15l8.59,5.71-9.41,14.26,13.35,15.68A63.4,63.4,0,0,1,219,362c-6.31,11.19-19.17,44-19.17,44s-5.47,17.75,16.75,33.79,48.1,40,68.44,38.28,43.39-15.28,48.52-20.58,22.78-43,22.64-53.49S349,381,335.63,363.81s-27.52-34.65-27.52-34.65,5.62-29.07,5.08-35.47-1.83-21.42-16.11-35.06-26.07-17.4-34.77-14.7S252,247.61,252,247.61Z"/><path class="cls-8" d="M258,260.67s-5.38,3-6.87,12.64c-.16,1-.29,2.13-.41,3.38-1,10.84-.81,29.92-.08,33.08.81,3.52,7.62,23.2,18.4,23.31s20.65-7.4,23.7-10.74,9.52-14.66,9.95-24.69-2.16-25.46-8.65-32.35-16-13.51-25.23-10.16S258,260.67,258,260.67Z"/><path class="cls-11" d="M266.41,266.11c8.19-3.26,13.66-5.26,20.56-2.52S294,265.3,294,265.3l-9.39-7.92s-7.48-3.47-10.53-3.21-12.86,2.64-14.93,5.38-4.37,2.93-5.89,6.14a32.1,32.1,0,0,0-2.17,7.62Z"/><path class="cls-10" d="M274.5,284.44l6.25,22-10.48-3s-1.7-2.1.54-1.37,8.19,2.58,8.19,2.58Z"/><ellipse class="cls-10" cx="286.55" cy="287.64" rx="0.94" ry="2.34" transform="translate(-64.2 83.14) rotate(-14.87)"/><ellipse class="cls-10" cx="263.74" cy="290.27" rx="0.94" ry="2.34" transform="translate(-65.64 77.38) rotate(-14.87)"/><path class="cls-10" d="M276.4,317.89c-1.95.56-3.85,1-5.82.27a12.1,12.1,0,0,1-4.17-3.05c-.79-.81-2,.43-1.24,1.24a13.57,13.57,0,0,0,5.14,3.59c2.2.77,4.38.26,6.55-.37a.87.87,0,0,0-.46-1.68Z"/><path class="cls-10" d="M255,280.52c1.07-3.29,7.26-6.44,10.16-3.85.95.85,2.37-.56,1.41-1.42-4.13-3.69-11.92-.08-13.5,4.74-.4,1.22,1.53,1.75,1.93.53Z"/><path class="cls-10" d="M280.67,273.91c1.85-2.91,8.63-4.46,10.8-1.23.71,1.07,2.44.07,1.72-1-3.08-4.59-11.53-3-14.24,1.24-.7,1.08,1,2.09,1.72,1Z"/><path class="cls-12" d="M256.25,316.24c10.62,0,10.64-16.5,0-16.5s-10.63,16.5,0,16.5Z"/><path class="cls-12" d="M297.69,314.87c10.62,0,10.63-16.5,0-16.5s-10.63,16.5,0,16.5Z"/><path class="cls-10" d="M253.67,306.89a3.74,3.74,0,0,1,.71,1.57c.09.44.76.25.67-.19a4.14,4.14,0,0,0-.77-1.74c-.27-.35-.88,0-.61.36Z"/><path class="cls-10" d="M256.42,306.28a2.89,2.89,0,0,1,.57,1.51c0,.45.73.45.7,0a3.48,3.48,0,0,0-.67-1.86c-.26-.36-.87,0-.6.35Z"/><path class="cls-10" d="M300,305.34a4.37,4.37,0,0,0-.5,1.94c0,.45.68.45.7,0a3.49,3.49,0,0,1,.4-1.58c.21-.4-.4-.76-.6-.36Z"/><path class="cls-10" d="M297.22,305.21a3.47,3.47,0,0,0-.37,2c0,.44.74.45.7,0a2.81,2.81,0,0,1,.27-1.59c.2-.41-.4-.76-.6-.36Z"/><path class="cls-10" d="M375.81,340.42c4.52,19.3,6.07,40.06,6.18,59.85a.53.53,0,0,0,1.05,0c-.11-19.88-1.68-40.73-6.22-60.13-.15-.66-1.16-.38-1,.28Z"/><path class="cls-8" d="M372.27,336.21s2.39-11,.37-12.12-4.55,4.1-4.55,4.1-1-10.57-2.53-6.74-2.23,5.51-2.23,5.51-3.8-11.14-4.42-8.06a45.14,45.14,0,0,0-.5,8s-5.14-7.52-5.46-4.65a66.88,66.88,0,0,0,0,8.21s1.4,6.34-3.58,4,4.92,9.46,4.92,9.46l17.56-6.48Z"/><path class="cls-10" d="M245.27,338.26a77.37,77.37,0,0,0,30.61,34.85.52.52,0,0,0,.53-.9,76.41,76.41,0,0,1-30.23-34.48c-.27-.62-1.18-.08-.91.53Z"/><path class="cls-10" d="M229.37,360.41a81.83,81.83,0,0,0,19.34,21.3c6.76,5.18,15.85,11.5,24.72,11.45a.53.53,0,0,0,0-1.05c-9.15.05-19.05-7.1-25.91-12.67a80.73,80.73,0,0,1-17.25-19.56c-.36-.57-1.27,0-.9.53Z"/><path class="cls-10" d="M304.92,317a.53.53,0,0,0,0-1,.53.53,0,0,0,0,1Z"/><path class="cls-10" d="M255.05,322.66c4.4,5.59,9.3,11.15,16.93,11.38s14.25-4.44,19.72-9.4c.51-.45-.24-1.19-.74-.74-5.28,4.79-11.49,9.27-19,9.09-7.3-.17-12-5.8-16.19-11.08-.42-.53-1.15.22-.74.75Z"/><path class="cls-10" d="M352.61,345.17c7.51-2.58,15-5.14,22.48-7.84.63-.23.35-1.24-.28-1-7.47,2.7-15,5.26-22.48,7.84-.63.21-.36,1.23.28,1Z"/><path class="cls-10" d="M372.57,325.18c1,3.38.08,6.7-.55,10.05-.12.66.89.95,1,.28.66-3.55,1.64-7,.54-10.61-.2-.64-1.21-.37-1,.28Z"/><path class="cls-10" d="M366.31,321.29c.87,2.08,1.81,4.76,1.53,7-.09.67,1,.66,1.05,0,.3-2.37-.67-5.15-1.57-7.31-.25-.62-1.27-.35-1,.28Z"/><path class="cls-10" d="M359.33,319.32a27.29,27.29,0,0,1,3.15,7,.52.52,0,0,0,1-.28,27.72,27.72,0,0,0-3.26-7.26c-.36-.57-1.26,0-.9.53Z"/><path class="cls-10" d="M353.6,322.27c.86.16,1.84,1.33,2.44,2a8.14,8.14,0,0,1,1.79,2.62c.25.62,1.26.34,1-.28a9.43,9.43,0,0,0-2-3.09c-.74-.76-1.82-2-2.91-2.21-.66-.11-.95.9-.28,1Z"/><path class="cls-10" d="M348.9,334.94c.88.07,1.61.69,2.53.59.67-.07.68-1.12,0-1-.87.1-1.66-.52-2.53-.59-.68-.06-.67,1,0,1.05Z"/><path class="cls-10" d="M231.31,282.93a95.69,95.69,0,0,0,6,38.86c.23.62,1.25.35,1-.28a95.17,95.17,0,0,1-5.95-38.58c0-.67-1-.67-1.05,0Z"/><path class="cls-10" d="M251.08,269.58a95.7,95.7,0,0,0-2.55,29.16c0,.67,1.09.67,1.05,0a94.52,94.52,0,0,1,2.52-28.88c.16-.66-.86-.94-1-.28Z"/><path class="cls-10" d="M295.35,267.31a68.5,68.5,0,0,1,7.26,28.51c0,.67,1.08.68,1.05,0a69.92,69.92,0,0,0-7.4-29c-.3-.6-1.21-.07-.91.53Z"/><path class="cls-10" d="M302.76,334.87c-3.61,4.66-5.94,12.65-12.94,12.87-.67,0-.68,1.07,0,1.05,7.54-.24,10-8.36,13.84-13.39.42-.54-.5-1.06-.9-.53Z"/><path class="cls-10" d="M282.68,374.51c4.82,2.84,10.45.92,15.41-.68a83.33,83.33,0,0,0,19.06-9.07c.57-.37,0-1.27-.53-.91a83.12,83.12,0,0,1-15.5,7.82c-5.29,2-12.64,5-17.91,1.94a.52.52,0,0,0-.53.9Z"/><path class="cls-10" d="M282.59,392.54a53.56,53.56,0,0,0,18.7-2.26,49.52,49.52,0,0,0,7.67-3.12c3.13-1.58,7.77-6.06,11.39-5.56.66.09.94-.92.27-1-5.09-.7-9.9,4.73-14.39,6.72a51.84,51.84,0,0,1-23.64,4.18c-.68,0-.68,1,0,1.05Z"/><path class="cls-10" d="M224.44,392.05a69.33,69.33,0,0,0,90.61,43.74c.62-.24.35-1.25-.28-1a68.27,68.27,0,0,1-89.31-43c-.21-.65-1.22-.37-1,.28Z"/><path class="cls-10" d="M309.44,332.45q22.82,27.87,43.22,57.56c.38.55,1.29,0,.9-.53q-20.46-29.79-43.38-57.77c-.42-.52-1.16.22-.74.74Z"/><path class="cls-10" d="M293.31,256.22a52.68,52.68,0,0,1,16.5,59.5c-.23.63.78.91,1,.27a53.68,53.68,0,0,0-16.77-60.51c-.52-.42-1.27.32-.74.74Z"/><path class="cls-10" d="M227.19,329.48q-1.4,11.46-3.69,22.78c-.13.65.88.94,1,.27q2.31-11.44,3.72-23c.08-.67-1-.66-1.05,0Z"/><path class="cls-10" d="M224.7,283.17a103.08,103.08,0,0,0-1.16,23.67c0,.67,1.09.67,1.05,0a101.76,101.76,0,0,1,1.12-23.39c.11-.66-.9-.95-1-.28Z"/><path class="cls-10" d="M214.46,322a114.7,114.7,0,0,1,8-10.48c.43-.51-.31-1.26-.75-.74a121.24,121.24,0,0,0-8.17,10.69c-.38.56.53,1.08.91.53Z"/><path class="cls-10" d="M214.92,300.4l7.73-13.86c.33-.59-.57-1.12-.9-.53L214,299.87c-.33.59.58,1.12.91.53Z"/><path class="cls-10" d="M211.49,378.47c-5.32,9.88-8.79,19.64-12.14,30.34a.52.52,0,0,0,1,.28c3.31-10.55,6.78-20.34,12-30.09.32-.6-.58-1.13-.9-.53Z"/><path class="cls-10" d="M201.15,424.8a187.41,187.41,0,0,0,39.21,34c.57.37,1.09-.53.53-.9a187.14,187.14,0,0,1-39-33.84c-.45-.51-1.19.24-.75.74Z"/><path class="cls-10" d="M354.92,397.27c2.11,9.69-1.77,20-5.3,28.92a133.47,133.47,0,0,1-12.69,24.31c-.37.57.54,1.09.91.53a135.55,135.55,0,0,0,13.42-26.17c3.32-8.78,6.73-18.42,4.68-27.87-.15-.66-1.16-.38-1,.28Z"/><path class="cls-10" d="M339.92,450.06a385.91,385.91,0,0,1,10,53.2c.08.67,1.13.68,1,0a387,387,0,0,0-10-53.48.52.52,0,0,0-1,.28Z"/><path class="cls-10" d="M236.63,478.45q1.1,22.44,1.26,44.92a.53.53,0,0,0,1.05,0q-.16-22.47-1.26-44.92c0-.68-1.09-.68-1.05,0Z"/><path class="cls-10" d="M269.42,475.35c11.44,5.27,21.86,3.41,33.23-.93,9.9-3.77,21.38-6.72,28.87-14.66.47-.49-.27-1.23-.74-.74-7,7.39-17.43,10.2-26.67,13.73-11.59,4.42-22.28,7.16-34.16,1.69-.6-.28-1.14.62-.53.91Z"/><path class="cls-10" d="M201.44,430.9a273.38,273.38,0,0,0,5,63.06c.13.66,1.14.38,1-.28a272.05,272.05,0,0,1-5-62.78c0-.68-1-.67-1.05,0Z"/></svg>